<?xml version="1.0" encoding="utf-8"?>
<!-- Generator: Adobe Illustrator 22.0.0, SVG Export Plug-In . SVG Version: 6.00 Build 0)  -->
<svg version="1.2" baseProfile="tiny" id="Layer_1" xmlns="http://www.w3.org/2000/svg" xmlns:xlink="http://www.w3.org/1999/xlink"
	 x="0px" y="0px" viewBox="0 0 14 20" xml:space="preserve">
<path stroke="#363636" d="M6.6,17.2L7,17.7l0.4-0.5c1.1-1.4,2.3-3.1,3.3-4.9c1-1.8,1.8-3.7,1.8-5.3c0-3-2.5-5.5-5.5-5.5
	C4,1.5,1.5,4,1.5,7c0,1.6,0.8,3.5,1.8,5.3C4.3,14.1,5.6,15.8,6.6,17.2z M7,19.2c-0.2-0.2-0.4-0.5-0.7-0.8c-0.6-0.8-1.5-1.9-2.4-3.2
	C3,13.9,2.2,12.5,1.6,11C0.9,9.6,0.5,8.2,0.5,7c0-3.6,2.9-6.5,6.5-6.5c3.6,0,6.5,2.9,6.5,6.5c0,1.2-0.4,2.6-1.1,4
	c-0.6,1.4-1.5,2.9-2.4,4.1c-0.9,1.3-1.7,2.4-2.4,3.2C7.4,18.7,7.2,19,7,19.2z"/>
<path fill="#363636" d="M7,9.6c1.4,0,2.5-1.1,2.5-2.5S8.4,4.6,7,4.6S4.5,5.7,4.5,7.1S5.6,9.6,7,9.6z"/>
</svg>
