<svg width="21" height="22" viewBox="0 0 21 22" fill="none" xmlns="http://www.w3.org/2000/svg">
<path d="M11.5238 8.38095C12.1 8.38095 12.5714 7.90952 12.5714 7.33333V5.2381H14.6667C15.2429 5.2381 15.7143 4.76667 15.7143 4.19048C15.7143 3.61429 15.2429 3.14286 14.6667 3.14286H12.5714V1.04762C12.5714 0.471429 12.1 0 11.5238 0C10.9476 0 10.4762 0.471429 10.4762 1.04762V3.14286H8.38095C7.80476 3.14286 7.33333 3.61429 7.33333 4.19048C7.33333 4.76667 7.80476 5.2381 8.38095 5.2381H10.4762V7.33333C10.4762 7.90952 10.9476 8.38095 11.5238 8.38095ZM6.28571 17.8095C5.13333 17.8095 4.20095 18.7524 4.20095 19.9048C4.20095 21.0571 5.13333 22 6.28571 22C7.4381 22 8.38095 21.0571 8.38095 19.9048C8.38095 18.7524 7.4381 17.8095 6.28571 17.8095ZM16.7619 17.8095C15.6095 17.8095 14.6771 18.7524 14.6771 19.9048C14.6771 21.0571 15.6095 22 16.7619 22C17.9143 22 18.8571 21.0571 18.8571 19.9048C18.8571 18.7524 17.9143 17.8095 16.7619 17.8095ZM7.4381 12.5714H15.2429C16.0286 12.5714 16.72 12.1419 17.0762 11.4924L20.6171 5.07048C20.9 4.56762 20.7114 3.92857 20.2086 3.64571C19.9666 3.5133 19.6822 3.48195 19.4172 3.55849C19.1523 3.63503 18.9283 3.81326 18.7943 4.05429L15.2429 10.4762H7.88857L3.70857 1.64476C3.62438 1.46594 3.49098 1.3148 3.324 1.20905C3.15702 1.1033 2.96337 1.0473 2.76571 1.04762H1.04762C0.471429 1.04762 0 1.51905 0 2.09524C0 2.67143 0.471429 3.14286 1.04762 3.14286H2.09524L5.86667 11.0943L4.45238 13.6505C3.68762 15.0543 4.69333 16.7619 6.28571 16.7619H17.8095C18.3857 16.7619 18.8571 16.2905 18.8571 15.7143C18.8571 15.1381 18.3857 14.6667 17.8095 14.6667H6.28571L7.4381 12.5714Z" fill="white"/>
</svg>
