<svg width="47" height="48" viewBox="0 0 47 48" fill="none" xmlns="http://www.w3.org/2000/svg">
<path d="M27.8868 3.30146L23.0166 8.19512H28.0976C33.0655 8.19512 37.83 10.1686 41.3429 13.6815C44.8558 17.1944 46.8293 21.9589 46.8293 26.9268H42.1463C42.1463 23.2009 40.6662 19.6275 38.0316 16.9928C35.3969 14.3582 31.8235 12.878 28.0976 12.878H23.0166L27.9102 17.7717L24.5854 21.0732L14.0488 10.5366L17.3502 7.23512L24.5854 0L27.8868 3.30146ZM0 24.5854V48H37.4634V24.5854H0ZM4.68293 39.9454V32.6634C6.08781 31.8439 7.25854 30.6732 8.07805 29.2683H29.3854C30.2049 30.6732 31.3756 31.8439 32.7805 32.6634V39.9454C31.3933 40.763 30.2401 41.9242 29.4322 43.3171H8.07805C7.25771 41.9179 6.08774 40.756 4.68293 39.9454ZM18.7317 40.9756C20.6704 40.9756 22.2439 38.88 22.2439 36.2927C22.2439 33.7054 20.6704 31.6098 18.7317 31.6098C16.793 31.6098 15.2195 33.7054 15.2195 36.2927C15.2195 38.88 16.793 40.9756 18.7317 40.9756Z" fill="#C4C4C4"/>
</svg>
