<svg width="48" height="36" viewBox="0 0 48 36" fill="none" xmlns="http://www.w3.org/2000/svg">
<path d="M37.0909 32.4933C38.9018 32.4933 40.3636 31.0315 40.3636 29.2206C40.3636 27.4097 38.9018 25.9478 37.0909 25.9478C35.28 25.9478 33.8182 27.4097 33.8182 29.2206C33.8182 31.0315 35.28 32.4933 37.0909 32.4933ZM40.3636 12.8569H34.9091V18.3115H44.64L40.3636 12.8569ZM10.9091 32.4933C12.72 32.4933 14.1818 31.0315 14.1818 29.2206C14.1818 27.4097 12.72 25.9478 10.9091 25.9478C9.09818 25.9478 7.63636 27.4097 7.63636 29.2206C7.63636 31.0315 9.09818 32.4933 10.9091 32.4933ZM41.4545 9.58421L48 18.3115V29.2206H43.6364C43.6364 32.8424 40.7127 35.766 37.0909 35.766C33.4691 35.766 30.5455 32.8424 30.5455 29.2206H17.4545C17.4545 32.8424 14.5309 35.766 10.9091 35.766C7.28727 35.766 4.36364 32.8424 4.36364 29.2206H0V5.22057C0 2.79875 1.94182 0.856934 4.36364 0.856934H34.9091V9.58421H41.4545ZM4.36364 5.22057V24.8569H6.02182C7.22182 23.526 8.96727 22.6751 10.9091 22.6751C12.8509 22.6751 14.5964 23.526 15.7964 24.8569H30.5455V5.22057H4.36364ZM19.6364 7.40239L27.2727 15.0388L19.6364 22.6751V17.2206H8.72727V12.8569H19.6364V7.40239Z" fill="#C4C4C4"/>
</svg>
