<svg width="18" height="23" viewBox="0 0 18 23" fill="none" xmlns="http://www.w3.org/2000/svg">
<path d="M17.7114 18.6422L16.7289 6.2622C16.6677 5.46461 15.9931 4.8398 15.1932 4.8398H13.2526V4.75257C13.2526 2.40768 11.345 0.5 9.00007 0.5C6.65518 0.5 4.74749 2.40768 4.74749 4.75257V4.8398C4.74749 4.8398 3.60689 4.8398 2.80694 4.8398C2.00699 4.8398 1.33242 5.46457 1.27141 6.26052C1.21039 7.05647 0.288624 18.6439 0.288624 18.6439C0.212569 19.6354 0.556534 20.6225 1.23226 21.352C1.90799 22.0815 2.86589 22.5 3.86031 22.5H14.1398C15.1342 22.5 16.0921 22.0816 16.7679 21.352C17.4436 20.6224 17.7875 19.6354 17.7114 18.6422ZM6.03612 4.75257C6.03612 3.11826 7.36579 1.78863 9.00007 1.78863C10.6343 1.78863 11.964 3.1183 11.964 4.75257V4.8398H6.03612V4.75257ZM15.8224 20.4764C15.3834 20.9503 14.1398 21.2114 14.1398 21.2114H3.86036C3.21428 21.2114 2.61676 20.9503 2.1777 20.4764C1.73869 20.0024 1.5241 19.3866 1.57343 18.7441L2.55613 6.36072C2.5661 6.23044 2.67627 6.12843 2.80694 6.12843H4.74749V7.71548C4.74749 8.07131 5.03598 8.3598 5.39181 8.3598C5.74763 8.3598 6.03612 8.07131 6.03612 7.71548V6.12843H11.964V7.71548C11.964 8.07131 12.2525 8.3598 12.6083 8.3598C12.9641 8.3598 13.2526 8.07131 13.2526 7.71548V6.12843H15.1932C15.3239 6.12843 15.434 6.23048 15.4442 6.36244L16.4267 18.7424C16.4761 19.3866 15.8224 20.4764 15.8224 20.4764Z" fill="#299AFF"/>
</svg>
