<svg width="18" height="18" viewBox="0 0 18 18" fill="none" xmlns="http://www.w3.org/2000/svg">
<path d="M17.4245 16.3953L13.1405 11.9397C14.242 10.6303 14.8455 8.98274 14.8455 7.26762C14.8455 3.26038 11.5853 0.00012207 7.57804 0.00012207C3.57081 0.00012207 0.310547 3.26038 0.310547 7.26762C0.310547 11.2748 3.57081 14.5351 7.57804 14.5351C9.08241 14.5351 10.516 14.0814 11.7417 13.22L16.0583 17.7094C16.2387 17.8968 16.4814 18.0001 16.7414 18.0001C16.9875 18.0001 17.2211 17.9063 17.3983 17.7356C17.775 17.3732 17.787 16.7722 17.4245 16.3953ZM7.57804 1.89599C10.54 1.89599 12.9497 4.30564 12.9497 7.26762C12.9497 10.2296 10.54 12.6392 7.57804 12.6392C4.61606 12.6392 2.20641 10.2296 2.20641 7.26762C2.20641 4.30564 4.61606 1.89599 7.57804 1.89599Z" fill="white"/>
</svg>
