<svg width="20" height="15" viewBox="0 0 20 15" fill="none" xmlns="http://www.w3.org/2000/svg">
<path d="M15.4545 13.1818C16.2091 13.1818 16.8182 12.5727 16.8182 11.8182C16.8182 11.0636 16.2091 10.4545 15.4545 10.4545C14.7 10.4545 14.0909 11.0636 14.0909 11.8182C14.0909 12.5727 14.7 13.1818 15.4545 13.1818ZM16.8182 5H14.5455V7.27273H18.6L16.8182 5ZM4.54545 13.1818C5.3 13.1818 5.90909 12.5727 5.90909 11.8182C5.90909 11.0636 5.3 10.4545 4.54545 10.4545C3.79091 10.4545 3.18182 11.0636 3.18182 11.8182C3.18182 12.5727 3.79091 13.1818 4.54545 13.1818ZM17.2727 3.63636L20 7.27273V11.8182H18.1818C18.1818 13.3273 16.9636 14.5455 15.4545 14.5455C13.9455 14.5455 12.7273 13.3273 12.7273 11.8182H7.27273C7.27273 13.3273 6.05455 14.5455 4.54545 14.5455C3.03636 14.5455 1.81818 13.3273 1.81818 11.8182H0V1.81818C0 0.809091 0.809091 0 1.81818 0H14.5455V3.63636H17.2727ZM1.81818 1.81818V10H2.50909C3.00909 9.44545 3.73636 9.09091 4.54545 9.09091C5.35455 9.09091 6.08182 9.44545 6.58182 10H12.7273V1.81818H1.81818ZM8.18182 2.72727L11.3636 5.90909L8.18182 9.09091V6.81818H3.63636V5H8.18182V2.72727Z" fill="#363636"/>
</svg>
